<svg xmlns="http://www.w3.org/2000/svg" width="28" height="40" viewBox="0 0 143 200"><path fill="#F00" d="M0 0zm99.67 38.6c7.4.11 14.02 2.66 20.46 6 10.48 6.05 17.38 15.01 20.57 26.72 3.15 11.75 1.68 22.98-4.38 33.47l-42.07 72.87c-1.83 3.18-5.22 4.16-8.4 2.32l-.23-.13c-3.2-1.85-4.12-5.28-2.27-8.48l20.01-34.66-27.3-15.77c-10.5-6.06-17.39-15.05-20.53-26.8-3.13-11.67-1.63-22.89 4.45-33.42C66.03 50.23 75 43.33 86.72 40.14c7.17-1.55 2.88-.84 12.95-1.54zm-.37 12.64c-7.17.54-4.11.02-9.23 1.15-8.47 2.31-14.78 7.15-19.11 14.66a30.19 30.19 0 0 0-3.14 23.88c2.23 8.47 7.03 14.78 14.53 19.11l27.3 15.77 15.77-27.31c4.33-7.51 5.35-15.4 3.07-23.9a30.16 30.16 0 0 0-14.65-19.1c-4.57-2.92-9.3-3.58-14.54-4.26zm8.76 8.6l2.57 1.2c5.38 2.82 8.35 7.43 10.88 12.7l-.78 3.54c-4.73 16.74-10.7 23.03-23.42 34l-11.76-6.79c-2.27-1.44-1.5-.81-2.47-1.64l1.76-1.01c11.1-6.4 18.23-15.78 21.53-28.32 1.67-7.59.9-3.06 1.7-13.68zM59.33 0C47.97 1.51 41.02 2.24 30.86 8.35 16.26 16.78 6.68 29.23 2.25 45.51-2.14 61.9-.1 77.5 8.33 92.1l60.1 104.1c2.18 3.76 6.01 4.87 9.76 2.7l.33-.18c3.78-2.2 4.83-6.08 2.64-9.87l-29.41-50.94 20.47-11.83c-4.37-2.8-9.02-5.66-12.04-10l-15.78 9.1-23.35-40.43c-6.4-11.1-7.92-22.83-4.55-35.4 3.34-12.46 10.53-21.82 21.7-28.28 6.79-3.52 13.75-6.2 21.54-6.3 10.64.8 6.1.03 13.7 1.7 9.47 3.04 18.18 7.61 24.13 15.88l2.33-.15c10.12.96 4.21-.03 17.5 4.08l-2.86-5.5c-8.43-14.6-20.88-24.2-37.16-28.62C67.38 0 73.36.99 59.33 0z"/></svg>