<?xml version="1.0" encoding="UTF-8" standalone="no"?>
<svg width="400px" height="400px" viewBox="0 0 400 400" version="1.1" xmlns="http://www.w3.org/2000/svg" xmlns:xlink="http://www.w3.org/1999/xlink">
    <!-- Generator: Sketch 50.2 (55047) - http://www.bohemiancoding.com/sketch -->
    <title>Artboard</title>
    <desc>Created with Sketch.</desc>
    <defs>
        <linearGradient x1="56.7651689%" y1="0%" x2="56.7651689%" y2="104.33652%" id="linearGradient-1">
            <stop stop-color="#514A9D" offset="0%"></stop>
            <stop stop-color="#6D63D4" offset="100%"></stop>
        </linearGradient>
        <linearGradient x1="50%" y1="0%" x2="50%" y2="100%" id="linearGradient-2">
            <stop stop-color="#24C6DC" offset="0%"></stop>
            <stop stop-color="#24C6DC" offset="100%"></stop>
        </linearGradient>
    </defs>
    <g id="Artboard" stroke="none" stroke-width="1" fill="none" fill-rule="evenodd">
        <g id="Group" transform="translate(57.000000, 0.000000)" fill-rule="nonzero">
            <path d="M119.284886,0 C147.48973,1.96826534 135.470357,-0.00511237752 155.569591,4.30973425 C188.30616,13.149035 213.328496,32.2744393 230.27612,61.4098787 C247.30614,90.6935772 251.477387,121.781945 242.728067,154.214868 C233.9118,186.867623 214.688013,211.790463 185.32964,228.62041 L104.041809,275.209506 L163.165381,376.879358 C167.563215,384.435452 165.467292,392.196041 157.856052,396.562012 L157.202042,396.935215 C149.673198,401.250062 141.958964,399.041515 137.592029,391.536545 L16.7700398,183.784859 C-0.177584637,154.639195 -4.27673659,123.504816 4.54467961,90.826499 C13.4484908,58.3271151 32.7134751,33.4860727 62.0615491,16.6663507 C82.4749139,4.47333033 96.4563178,3.01630274 119.284886,0 Z M120.119136,29.4830811 C104.453784,29.656902 90.4620806,35.0300107 76.8257057,42.0544175 C54.3576153,54.9324964 39.9075897,73.6182362 33.1975458,98.4797281 C26.4257055,123.576389 29.458872,146.970629 42.3433923,169.122561 L89.2776522,249.82144 L170.560334,203.232343 C192.873933,190.446287 207.205516,171.74521 213.848614,146.71501 C220.558658,121.853518 217.453396,98.5001776 204.481331,76.1948745 C191.591661,54.0276056 172.759251,39.6771619 147.64422,32.8828122 C132.385694,29.5342049 141.500642,31.0730305 120.119136,29.4830811 Z" id="Shape-Copy-6" fill="url(#linearGradient-1)"></path>
            <path d="M200.387329,77.0230797 C215.254479,77.2531367 228.556124,82.3297275 241.50759,88.9962678 C262.580115,101.076816 276.453376,118.965025 282.854439,142.32859 C289.183406,165.773953 286.232634,188.191729 274.058771,209.121802 L189.485438,354.553606 C185.798262,360.887841 178.985224,362.835657 172.594461,359.170082 L172.136138,358.909351 C165.699028,355.218215 163.85029,348.382966 167.568365,341.987382 L207.79773,272.816914 L152.902052,241.35023 C131.819228,229.26457 117.971716,211.315012 111.647899,187.869649 C105.360129,164.577657 108.367547,142.190556 120.592907,121.163347 C132.761621,100.243498 150.780381,86.4707533 174.340205,80.1058433 C188.759332,77.0128549 180.133604,78.4289835 200.387329,77.0230797 Z M199.640624,102.257775 C185.221496,103.336487 191.370224,102.298674 181.070848,104.558345 C164.061427,109.159485 151.377744,118.821878 142.659322,133.811369 C133.889403,148.897995 131.798629,164.618556 136.345804,181.46384 C140.831183,198.370472 150.476549,210.952033 165.554837,219.597064 L220.450515,251.058635 L252.141697,196.560691 C260.85497,181.581425 262.899396,165.835302 258.316173,148.857096 C253.779298,132.042487 244.051537,119.466038 228.854806,110.754547 C219.667762,104.921324 210.161437,103.62278 199.640624,102.257775 Z" id="Shape-Copy-5" fill="url(#linearGradient-2)"></path>
        </g>
    </g>
</svg>