<?xml version="1.0" encoding="UTF-8"?>
<!DOCTYPE svg PUBLIC "-//W3C//DTD SVG 1.1//EN" "http://www.w3.org/Graphics/SVG/1.1/DTD/svg11.dtd">
<svg version="1.1" xmlns="http://www.w3.org/2000/svg" xmlns:xlink="http://www.w3.org/1999/xlink" x="0" y="0" width="447" height="200" viewBox="0, 0, 447, 200">
  <g id="Background">
    <rect x="0" y="0" width="447" height="200" fill="#FFFFFF"/>
  </g>
  <g id="Artboard">
    <path d="M164.786,133.51 L167.123,133.615 C172.606,134.108 177.065,136.593 181.054,140.236 C185.555,144.737 187.823,150.202 187.823,156.547 C187.823,162.865 185.555,168.316 181.058,172.812 C176.585,177.316 171.133,179.585 164.786,179.585 C158.954,179.585 153.841,177.653 149.511,173.807 C147.783,172.093 148.574,172.988 147.127,171.131 L147.127,195.332 C147.127,196.941 146.086,198.021 144.48,198.021 L144.395,198.021 C142.79,198.021 141.748,196.941 141.748,195.332 L141.748,156.54 C141.778,150.17 144.045,144.708 148.521,140.233 C153.021,135.762 158.47,133.51 164.786,133.51 z M164.786,138.804 L164.786,138.804 C159.916,138.804 155.795,140.515 152.338,143.972 L152.333,143.976 C148.85,147.433 147.127,151.553 147.127,156.42 C147.127,161.316 148.85,165.45 152.338,168.911 C155.795,172.368 159.916,174.079 164.786,174.079 C169.655,174.079 173.777,172.368 177.234,168.911 C180.691,165.454 182.402,161.318 182.402,156.42 C182.402,151.551 180.691,147.429 177.234,143.972 C173.777,140.515 169.655,138.804 164.786,138.804 z M280.078,133.425 C273.731,133.425 268.278,135.694 263.805,140.197 C259.309,144.663 257.04,150.116 257.04,156.462 C257.329,162.821 259.186,168.182 263.809,172.73 C268.495,177.038 273.592,179.531 280.078,179.5 C282.47,179.5 284.805,179.136 287.077,178.409 C288.208,178.096 288.884,177.119 288.884,175.876 C288.884,175.021 288.494,174.276 287.799,173.771 C287.35,173.434 286.838,173.229 286.28,173.229 C285.997,173.229 285.734,173.287 285.423,173.391 C283.747,173.933 281.962,174.206 280.078,174.206 C275.208,174.206 271.087,172.495 267.63,169.038 C264.142,165.577 262.419,161.457 262.419,156.59 C262.419,151.723 264.142,147.603 267.625,144.146 C271.087,140.684 275.208,138.974 280.078,138.974 C281.966,138.974 283.782,139.248 285.534,139.797 L285.535,139.793 C286.015,139.946 285.754,139.887 286.322,139.951 C286.869,139.951 287.354,139.743 287.817,139.396 C288.502,138.898 288.884,138.134 288.884,137.261 L288.884,137.006 C288.884,135.803 288.181,134.878 287.029,134.514 C284.669,133.788 282.355,133.425 280.078,133.425 z M315.294,138.974 C320.743,138.974 325.197,141.045 328.764,145.242 C329.905,146.641 329.544,146.115 329.962,146.734 C324.683,149.11 319.405,151.486 314.126,153.863 C308.812,156.26 303.498,158.657 298.191,161.07 C297.95,160.321 298.143,160.945 297.792,159.153 C297.688,158.321 297.635,157.463 297.635,156.59 C297.635,151.723 299.358,147.603 302.842,144.146 L302.846,144.142 C306.303,140.684 310.425,138.974 315.294,138.974 L315.294,138.974 z M316.959,133.482 L315.294,133.425 C308.947,133.425 303.495,135.694 299.022,140.197 C294.526,144.663 292.256,150.116 292.256,156.462 C292.739,162.583 294.446,168.365 299.023,172.729 L299.022,172.727 L299.029,172.734 L299.026,172.731 C303.683,176.734 308.97,179.63 315.294,179.5 C320.163,179.5 324.614,178.087 328.605,175.275 C332.601,172.43 335.411,168.708 337.015,164.138 C337.219,163.243 337.267,162.537 336.687,161.737 L336.695,161.732 L336.66,161.689 L336.63,161.637 L336.622,161.643 C336.095,161.006 335.395,160.551 334.538,160.57 C333.281,160.57 332.292,161.241 331.918,162.425 C330.679,165.907 328.533,168.742 325.471,170.914 C322.405,173.115 319.029,174.206 315.294,174.206 C309.551,174.206 304.957,171.981 301.39,167.469 C300.344,166.09 300.636,166.615 300.315,166.025 L300.387,165.994 C301.058,165.661 301.543,165.432 301.909,165.275 C305.671,163.594 311.167,161.115 318.419,157.829 C325.552,154.602 331.071,152.126 334.974,150.4 C335.647,150.101 336.104,149.538 336.343,148.823 C336.557,148.182 336.49,147.515 336.201,146.878 C334.322,142.789 331.482,139.523 327.7,137.102 C324.388,135.114 320.86,133.714 316.959,133.482 z M216.786,74.804 C221.655,74.804 225.777,76.515 229.234,79.972 C232.691,83.429 234.402,87.551 234.402,92.42 C234.402,97.318 232.691,101.454 229.234,104.91 C225.777,108.368 221.655,110.079 216.786,110.079 C211.916,110.079 207.795,108.368 204.338,104.91 C200.85,101.45 199.127,97.316 199.127,92.42 C199.127,87.553 200.85,83.433 204.333,79.976 L204.338,79.972 C207.795,76.515 211.916,74.804 216.786,74.804 z M216.786,69.51 C210.47,69.51 205.021,71.762 200.521,76.233 C196.045,80.708 193.778,86.17 193.748,92.54 L193.748,117.631 L193.744,117.678 L193.744,176.853 C193.744,178.483 194.874,179.5 196.519,179.5 C198.096,179.5 199.123,178.434 199.123,176.853 L199.123,131.363 L199.127,131.332 L199.127,107.131 C200.574,108.988 199.783,108.093 201.511,109.807 C205.841,113.653 210.954,115.585 216.786,115.585 C223.133,115.585 228.585,113.316 233.058,108.812 C237.555,104.316 239.823,98.865 239.823,92.547 C239.823,86.202 237.555,80.737 233.054,76.236 C228.581,71.763 223.13,69.51 216.786,69.51 z M228.506,138.889 C233.378,138.889 237.501,140.587 240.959,144.018 C244.442,147.476 246.165,151.595 246.165,156.462 C246.165,161.329 244.442,165.449 240.958,168.907 C237.497,172.368 233.376,174.079 228.506,174.079 C223.637,174.079 219.516,172.368 216.058,168.911 C212.571,165.449 210.848,161.329 210.848,156.462 C210.848,151.595 212.571,147.476 216.054,144.018 L216.054,144.018 C219.512,140.587 223.635,138.889 228.506,138.889 z M228.506,133.425 C222.159,133.425 216.707,135.694 212.234,140.197 C207.738,144.663 205.469,150.116 205.469,156.462 C205.469,162.809 207.738,168.262 212.241,172.735 C216.707,177.231 222.159,179.5 228.506,179.5 C234.34,179.5 239.44,177.567 243.737,173.723 C245.584,171.96 244.792,172.845 246.165,171.117 L246.165,176.853 C246.165,178.434 247.192,179.5 248.77,179.5 L248.897,179.5 C250.49,179.5 251.544,178.446 251.544,176.853 L251.544,156.462 C251.544,150.116 249.275,144.663 244.771,140.19 C240.306,135.694 234.853,133.425 228.506,133.425 z M263.805,172.727 L263.812,172.735 L263.808,172.73 L263.805,172.727 z M364.193,74.974 C369.642,74.974 374.096,77.045 377.663,81.242 C378.804,82.641 378.443,82.115 378.861,82.734 C373.582,85.11 368.303,87.486 363.025,89.863 C357.711,92.26 352.397,94.657 347.09,97.07 C346.849,96.321 347.042,96.945 346.691,95.153 C346.587,94.321 346.534,93.463 346.534,92.59 C346.534,87.723 348.257,83.603 351.741,80.146 L351.745,80.142 C355.202,76.684 359.323,74.974 364.193,74.974 z M364.193,69.425 C357.846,69.425 352.394,71.694 347.921,76.197 C343.425,80.663 341.155,86.116 341.155,92.462 C341.638,98.584 343.346,104.365 347.923,108.73 L347.921,108.727 L347.928,108.735 L347.924,108.731 C352.581,112.734 357.869,115.63 364.193,115.5 C369.062,115.5 373.513,114.087 377.503,111.276 C381.499,108.43 384.31,104.708 385.914,100.138 C386.118,99.243 386.166,98.537 385.586,97.737 L385.594,97.732 L385.559,97.689 L385.529,97.637 L385.521,97.643 C384.994,97.006 384.294,96.551 383.436,96.57 C382.18,96.57 381.191,97.241 380.817,98.425 C379.578,101.907 377.432,104.742 374.37,106.914 C371.304,109.115 367.928,110.206 364.193,110.206 C358.45,110.206 353.856,107.981 350.289,103.469 C349.243,102.09 349.535,102.615 349.214,102.025 L349.285,101.994 C349.957,101.661 350.442,101.432 350.808,101.275 C354.57,99.594 360.066,97.115 367.318,93.829 C374.451,90.602 379.969,88.126 383.873,86.4 C384.546,86.101 385.003,85.538 385.242,84.823 C385.455,84.182 385.389,83.515 385.099,82.878 C383.221,78.789 380.381,75.523 376.599,73.102 C372.823,70.656 368.674,69.425 364.193,69.425 z M430.462,51.031 C428.853,51.031 427.773,52.072 427.773,53.678 L427.773,104.187 C427.773,107.307 428.897,110 431.109,112.18 C433.308,114.379 436.012,115.5 439.128,115.5 L442.697,115.5 C444.315,115.5 445.344,114.395 445.344,112.768 C445.344,111.159 444.302,110.079 442.697,110.079 L439.128,110.079 C437.458,110.079 436.084,109.514 434.922,108.351 C433.725,107.178 433.152,105.822 433.152,104.187 L433.152,74.888 L442.697,74.889 C444.327,74.889 445.344,73.759 445.344,72.114 C445.344,70.505 444.302,69.425 442.697,69.425 L433.152,69.425 L433.152,53.678 C433.152,52.072 432.072,51.031 430.462,51.031 z M312.452,69.425 L309.86,69.425 C305.157,69.425 301.134,71.084 297.877,74.372 C294.6,77.65 292.928,81.695 292.897,86.42 L292.897,112.853 C292.897,114.434 293.924,115.5 295.502,115.5 L295.629,115.5 C297.223,115.5 298.276,114.446 298.276,112.853 L298.276,86.43 C298.327,83.158 299.46,80.43 301.703,78.188 C303.935,75.981 306.628,74.889 309.86,74.888 L312.452,74.889 C314.082,74.889 315.099,73.759 315.099,72.114 C315.099,70.505 314.057,69.425 312.452,69.425 z M266.233,74.974 C271.682,74.974 276.136,77.045 279.703,81.242 C280.844,82.641 280.483,82.115 280.901,82.734 C275.622,85.11 270.344,87.486 265.065,89.863 C259.751,92.26 254.437,94.657 249.13,97.07 C248.889,96.321 249.082,96.945 248.731,95.153 C248.627,94.321 248.574,93.463 248.574,92.59 C248.574,87.723 250.297,83.603 253.781,80.146 L253.785,80.142 C257.242,76.684 261.364,74.974 266.233,74.974 L266.233,74.974 z M266.233,69.425 C259.886,69.425 254.434,71.694 249.961,76.197 C245.465,80.663 243.195,86.116 243.195,92.462 C243.484,98.821 245.341,104.182 249.964,108.731 C254.651,113.039 259.748,115.531 266.233,115.5 C271.102,115.5 275.553,114.087 279.544,111.275 C283.539,108.43 286.35,104.708 287.954,100.138 C288.158,99.243 288.206,98.537 287.626,97.737 L287.634,97.732 L287.599,97.689 L287.568,97.637 L287.561,97.643 C287.034,97.006 286.334,96.551 285.477,96.57 C284.22,96.57 283.231,97.241 282.857,98.425 C281.618,101.907 279.472,104.742 276.41,106.914 C273.344,109.115 269.968,110.206 266.233,110.206 C260.49,110.206 255.896,107.981 252.329,103.469 C251.283,102.09 251.575,102.615 251.254,102.025 L251.326,101.994 C251.997,101.661 252.482,101.432 252.848,101.275 C256.61,99.594 262.106,97.115 269.358,93.829 C276.491,90.602 282.01,88.126 285.913,86.4 C286.586,86.101 287.043,85.538 287.282,84.823 C287.495,84.182 287.429,83.515 287.139,82.878 C285.261,78.789 282.421,75.523 278.639,73.102 C275.327,71.114 271.799,69.714 267.898,69.482 L266.233,69.425 z M336.835,51.031 L334.244,51.031 C329.574,51.031 325.555,52.673 322.271,55.926 C318.984,59.213 317.312,63.259 317.281,67.984 L317.281,112.853 C317.281,114.446 318.335,115.5 319.928,115.5 L320.013,115.5 C321.606,115.5 322.66,114.446 322.66,112.853 L322.66,74.888 L336.835,74.889 C338.466,74.889 339.482,73.759 339.482,72.114 C339.482,70.521 338.429,69.467 336.835,69.467 L324.134,69.467 L322.66,69.446 L322.66,67.951 C322.711,64.708 323.844,61.994 326.087,59.751 C328.324,57.513 331.015,56.41 334.244,56.41 L336.835,56.41 C338.453,56.41 339.482,55.304 339.482,53.678 C339.482,52.085 338.429,51.031 336.835,51.031 z M413.895,69.425 C407.548,69.425 402.096,71.694 397.623,76.197 C393.127,80.663 390.857,86.116 390.857,92.462 C391.147,98.821 393.003,104.182 397.627,108.731 C402.313,113.039 407.41,115.531 413.895,115.5 C416.287,115.5 418.622,115.136 420.894,114.409 C422.025,114.096 422.702,113.119 422.702,111.876 C422.702,111.021 422.311,110.276 421.617,109.771 C421.168,109.434 420.656,109.229 420.097,109.229 C419.814,109.229 419.551,109.287 419.24,109.391 C417.564,109.933 415.78,110.206 413.895,110.206 C409.026,110.206 404.904,108.495 401.447,105.038 C397.959,101.577 396.236,97.457 396.236,92.59 C396.236,87.723 397.959,83.603 401.443,80.146 C404.904,76.684 409.026,74.974 413.895,74.974 C415.783,74.974 417.6,75.248 419.351,75.797 L419.352,75.793 C419.833,75.946 419.572,75.887 420.14,75.951 C420.687,75.951 421.172,75.743 421.634,75.396 C422.32,74.898 422.702,74.134 422.702,73.261 L422.702,73.006 C422.702,71.803 421.999,70.878 420.846,70.514 C418.487,69.788 416.172,69.425 413.895,69.425 z M249.961,108.727 L249.968,108.734 L249.964,108.731 L249.961,108.727 z M397.623,108.727 L397.63,108.734 L397.626,108.731 L397.623,108.727 z M99.674,38.596 C107.07,38.712 113.687,41.255 120.13,44.596 C130.613,50.65 137.515,59.613 140.699,71.321 C143.847,83.069 142.38,94.303 136.323,104.791 L94.251,177.664 C92.417,180.841 89.027,181.817 85.848,179.98 L85.62,179.849 C82.418,178 81.498,174.575 83.348,171.37 L103.361,136.708 L76.052,120.94 C65.564,114.884 58.675,105.89 55.529,94.141 C52.401,82.47 53.897,71.252 59.979,60.715 C66.032,50.232 74.996,43.33 86.717,40.141 C93.89,38.591 89.599,39.301 99.674,38.596 z M99.303,51.244 L99.303,51.241 C92.13,51.782 95.188,51.262 90.065,52.394 C81.603,54.7 75.293,59.542 70.956,67.053 C66.594,74.613 65.553,82.49 67.815,90.931 C70.047,99.403 74.845,105.708 82.346,110.04 L109.655,125.805 L125.42,98.496 C129.755,90.99 130.772,83.1 128.492,74.592 C126.235,66.166 121.396,59.864 113.836,55.499 C109.266,52.576 104.536,51.925 99.303,51.244 z M108.062,59.836 C109.258,60.395 108.4,59.992 110.634,61.045 C116.013,63.858 118.983,68.472 121.511,73.749 L120.735,77.277 C116.001,94.018 110.026,100.315 97.31,111.282 L85.548,104.491 C83.284,103.046 84.042,103.676 83.084,102.852 L84.836,101.84 C95.936,95.433 103.066,86.061 106.371,73.519 C108.044,65.931 107.275,70.46 108.062,59.836 z M59.328,0 C47.972,1.511 41.016,2.242 30.861,8.352 C16.262,16.78 6.678,29.228 2.249,45.513 C-2.14,61.888 -0.101,77.49 8.33,92.095 L68.435,196.199 C70.608,199.96 74.445,201.066 78.191,198.904 L78.516,198.717 C82.303,196.529 83.345,192.64 81.157,188.854 L51.745,137.907 L72.222,126.085 C67.851,123.285 63.204,120.415 60.181,116.073 L44.401,125.185 L21.052,84.75 C14.643,73.647 13.134,61.924 16.502,49.348 C19.84,36.89 27.029,27.527 38.206,21.073 C44.99,17.554 51.95,14.861 59.743,14.774 C70.38,15.571 65.845,14.8 73.436,16.478 C82.912,19.513 91.62,24.081 97.571,32.348 C98.583,32.289 97.807,32.335 99.9,32.197 C110.021,33.163 104.114,32.174 117.397,36.278 L114.543,30.772 C106.112,16.173 93.664,6.589 77.379,2.16 C67.38,-0.003 73.359,0.986 59.328,0 z" fill="#0044CC"/>
  </g>
</svg>
