<?xml version="1.0" encoding="UTF-8"?>
<!DOCTYPE svg PUBLIC "-//W3C//DTD SVG 1.1//EN" "http://www.w3.org/Graphics/SVG/1.1/DTD/svg11.dtd">
<svg version="1.1" xmlns="http://www.w3.org/2000/svg" xmlns:xlink="http://www.w3.org/1999/xlink" x="0" y="0" width="286" height="400" viewBox="0, 0, 143, 200">
  <g id="Background">
    <rect x="0" y="0" width="143" height="200" fill="#000000" fill-opacity="0"/>
  </g>
  <g id="Artboard">
    <path d="M-0,-0 z M99.674,38.596 C107.07,38.712 113.687,41.255 120.13,44.596 C130.613,50.65 137.515,59.613 140.699,71.321 C143.847,83.069 142.38,94.303 136.323,104.791 L94.251,177.664 C92.417,180.841 89.027,181.817 85.848,179.98 L85.62,179.849 C82.418,178 81.498,174.575 83.348,171.37 L103.361,136.708 L76.052,120.94 C65.564,114.884 58.675,105.89 55.529,94.141 C52.401,82.47 53.897,71.252 59.979,60.715 C66.032,50.232 74.996,43.33 86.717,40.141 C93.89,38.591 89.599,39.301 99.674,38.596 z M99.303,51.244 L99.303,51.241 C92.13,51.782 95.188,51.262 90.065,52.394 C81.603,54.7 75.293,59.542 70.956,67.053 C66.594,74.613 65.553,82.49 67.815,90.931 C70.047,99.403 74.845,105.708 82.346,110.04 L109.655,125.805 L125.42,98.496 C129.755,90.99 130.772,83.1 128.492,74.592 C126.235,66.166 121.396,59.864 113.836,55.499 C109.266,52.576 104.536,51.925 99.303,51.244 z M108.062,59.836 C109.258,60.395 108.4,59.992 110.634,61.045 C116.013,63.858 118.983,68.472 121.511,73.749 L120.735,77.277 C116.001,94.018 110.026,100.315 97.31,111.282 L85.548,104.491 C83.284,103.046 84.042,103.676 83.084,102.852 L84.836,101.84 C95.936,95.433 103.066,86.061 106.371,73.519 C108.044,65.931 107.275,70.46 108.062,59.836 z M59.328,0 C47.972,1.511 41.016,2.242 30.861,8.352 C16.262,16.78 6.678,29.228 2.249,45.513 C-2.14,61.888 -0.101,77.49 8.33,92.095 L68.435,196.199 C70.608,199.96 74.445,201.066 78.191,198.904 L78.516,198.717 C82.303,196.529 83.345,192.64 81.157,188.854 L51.745,137.907 L72.222,126.085 C67.851,123.285 63.204,120.415 60.181,116.073 L44.401,125.185 L21.052,84.75 C14.643,73.647 13.134,61.924 16.502,49.348 C19.84,36.89 27.029,27.527 38.206,21.073 C44.99,17.554 51.95,14.861 59.743,14.774 C70.38,15.571 65.845,14.8 73.436,16.478 C82.912,19.513 91.62,24.081 97.571,32.348 C98.583,32.289 97.807,32.335 99.9,32.197 C110.021,33.163 104.114,32.174 117.397,36.278 L114.543,30.772 C106.112,16.173 93.664,6.589 77.379,2.16 C67.38,-0.003 73.359,0.986 59.328,0 z" fill="#0044CC"/>
  </g>
</svg>
